<svg width="16" height="17" viewBox="0 0 16 17" fill="none" xmlns="http://www.w3.org/2000/svg">
<path d="M12.8535 12.3504C12.9 12.3968 12.9368 12.452 12.962 12.5127C12.9871 12.5734 13.0001 12.6384 13.0001 12.7041C13.0001 12.7698 12.9871 12.8349 12.962 12.8956C12.9368 12.9563 12.9 13.0114 12.8535 13.0579C12.8071 13.1043 12.7519 13.1412 12.6912 13.1663C12.6305 13.1914 12.5655 13.2044 12.4998 13.2044C12.4341 13.2044 12.369 13.1914 12.3083 13.1663C12.2476 13.1412 12.1925 13.1043 12.146 13.0579L7.99979 8.91098L3.85354 13.0579C3.75972 13.1517 3.63247 13.2044 3.49979 13.2044C3.36711 13.2044 3.23986 13.1517 3.14604 13.0579C3.05222 12.964 2.99951 12.8368 2.99951 12.7041C2.99951 12.5714 3.05222 12.4442 3.14604 12.3504L7.29291 8.2041L3.14604 4.05785C3.05222 3.96403 2.99951 3.83679 2.99951 3.7041C2.99951 3.57142 3.05222 3.44418 3.14604 3.35035C3.23986 3.25653 3.36711 3.20383 3.49979 3.20383C3.63247 3.20383 3.75972 3.25653 3.85354 3.35035L7.99979 7.49723L12.146 3.35035C12.2399 3.25653 12.3671 3.20383 12.4998 3.20383C12.6325 3.20383 12.7597 3.25653 12.8535 3.35035C12.9474 3.44418 13.0001 3.57142 13.0001 3.7041C13.0001 3.83679 12.9474 3.96403 12.8535 4.05785L8.70666 8.2041L12.8535 12.3504Z" fill="#263238"/>
</svg>
