<svg width="16" height="17" viewBox="0 0 16 17" fill="none" xmlns="http://www.w3.org/2000/svg">
<path fill-rule="evenodd" clip-rule="evenodd" d="M4 0.5C1.79086 0.5 0 2.29086 0 4.5V12.5C0 14.7091 1.79086 16.5 4 16.5H12C14.2091 16.5 16 14.7091 16 12.5V4.5C16 2.29086 14.2091 0.5 12 0.5H4ZM8.90617 4.44165C8.54707 3.6722 7.45293 3.6722 7.09383 4.44165L6.24458 6.26132C6.14525 6.47417 5.97417 6.64525 5.76132 6.74458L3.94165 7.59383C3.1722 7.95293 3.1722 9.04707 3.94165 9.40617L5.76132 10.2554C5.97417 10.3547 6.14525 10.5258 6.24458 10.7387L7.09383 12.5584C7.45293 13.3278 8.54707 13.3278 8.90617 12.5583L9.75542 10.7387C9.85475 10.5258 10.0258 10.3547 10.2387 10.2554L12.0584 9.40617C12.8278 9.04707 12.8278 7.95293 12.0583 7.59383L10.2387 6.74458C10.0258 6.64525 9.85475 6.47417 9.75542 6.26132L8.90617 4.44165Z" fill="#3381FF"/>
</svg>
