<svg width="16" height="17" viewBox="0 0 16 17" fill="none" xmlns="http://www.w3.org/2000/svg">
<path fill-rule="evenodd" clip-rule="evenodd" d="M4 0.204102C1.79086 0.204102 0 1.99496 0 4.2041V12.2041C0 14.4132 1.79086 16.2041 4 16.2041H12C14.2091 16.2041 16 14.4132 16 12.2041V4.2041C16 1.99496 14.2091 0.204102 12 0.204102H4ZM10.134 4.32441L11.8793 6.07012C11.9373 6.12816 11.9834 6.19706 12.0148 6.2729C12.0462 6.34874 12.0624 6.43002 12.0624 6.51211C12.0624 6.5942 12.0462 6.67548 12.0148 6.75132C11.9834 6.82716 11.9373 6.89606 11.8793 6.9541L7.0625 11.7709C7.00467 11.8292 6.93584 11.8754 6.85999 11.9069C6.78415 11.9383 6.70281 11.9544 6.6207 11.9541H4.875C4.70924 11.9541 4.55027 11.8883 4.43306 11.771C4.31585 11.6538 4.25 11.4949 4.25 11.3291V9.5834C4.24974 9.50129 4.2658 9.41995 4.29725 9.34411C4.3287 9.26826 4.37491 9.19943 4.4332 9.1416L9.25 4.32441C9.30804 4.26636 9.37694 4.22031 9.45278 4.18889C9.52862 4.15748 9.6099 4.14131 9.69199 4.14131C9.77408 4.14131 9.85536 4.15748 9.9312 4.18889C10.007 4.22031 10.0759 4.26636 10.134 4.32441ZM8.7543 5.7041L10.5 7.44941L11.4375 6.51191L9.6918 4.7666L8.7543 5.7041Z" fill="#3381FF"/>
</svg>
